<?xml version="1.0" encoding="UTF-8" standalone="no"?>
<svg
   xmlns:dc="http://purl.org/dc/elements/1.1/"
   xmlns:cc="http://creativecommons.org/ns#"
   xmlns:rdf="http://www.w3.org/1999/02/22-rdf-syntax-ns#"
   xmlns:svg="http://www.w3.org/2000/svg"
   xmlns="http://www.w3.org/2000/svg"
   xmlns:sodipodi="http://sodipodi.sourceforge.net/DTD/sodipodi-0.dtd"
   xmlns:inkscape="http://www.inkscape.org/namespaces/inkscape"
   viewBox="300 360 800 400"
   height="72px"
   width="200px"
   id="svg2"
   version="1.1"
   sodipodi:docname="logo.svg"
   inkscape:version="0.92.0 r15299">
  <sodipodi:namedview
     pagecolor="#ffffff"
     bordercolor="#666666"
     borderopacity="1"
     objecttolerance="10"
     gridtolerance="10"
     guidetolerance="10"
     inkscape:pageopacity="0"
     inkscape:pageshadow="2"
     inkscape:window-width="1366"
     inkscape:window-height="745"
     id="namedview107"
     showgrid="false"
     inkscape:zoom="6.055"
     inkscape:cx="93.779109"
     inkscape:cy="29.393889"
     inkscape:window-x="-8"
     inkscape:window-y="-8"
     inkscape:window-maximized="1"
     inkscape:current-layer="g10" />
  <metadata
     id="metadata8">
    <rdf:RDF>
      <cc:Work
         rdf:about="">
        <dc:format>image/svg+xml</dc:format>
        <dc:type
           rdf:resource="http://purl.org/dc/dcmitype/StillImage" />
      </cc:Work>
    </rdf:RDF>
  </metadata>
  <defs
     id="defs6">
    <clipPath
       id="clipPath18"
       clipPathUnits="userSpaceOnUse">
      <path
         id="path16"
         d="M 0,841.89 H 1190.55 V 0 H 0 Z" />
    </clipPath>
    <clipPath
       id="clipPath62"
       clipPathUnits="userSpaceOnUse">
      <path
         id="path60"
         d="M 0,841.89 H 1190.55 V 0 H 0 Z" />
    </clipPath>
    <clipPath
       id="clipPath98"
       clipPathUnits="userSpaceOnUse">
      <path
         id="path96"
         d="M 0,841.89 H 1190.55 V 0 H 0 Z" />
    </clipPath>
    <clipPath
       id="clipPath130"
       clipPathUnits="userSpaceOnUse">
      <path
         id="path128"
         d="M 0,841.89 H 1190.55 V 0 H 0 Z" />
    </clipPath>
  </defs>
  <g
     transform="matrix(1.3333333,0,0,-1.3333333,0,1122.52)"
     id="g10">
    <g
       id="g12"
       transform="translate(-33.421,0.10500004)">
      <g
         clip-path="url(#clipPath18)"
         id="g14">
        <g
           transform="translate(407.8792,402.2745)"
           id="g20">
          <path
             id="path22"
             style="fill:#10bcac;fill-opacity:1;fill-rule:nonzero;stroke:none"
             d="m 0,0 c 5.246,-0.009 7.053,4.389 5.489,10.218 -1.13,3.661 -4.085,4.514 -7.379,4.617 -3.809,0.118 -7.623,0.044 -11.436,0.045 -11.527,0.003 -11.528,0.002 -11.099,-11.587 0.03,-0.822 0.121,-1.797 0.177,-2.448 0.056,-0.651 0.391,-0.573 2.536,-0.635 2.145,-0.063 14.607,-0.134 21.911,-0.2 M 3.47,37.257 c -0.368,3.45 -2.872,4.087 -5.652,4.115 -6.263,0.062 -12.528,-0.029 -18.791,0.022 -0.928,0.007 -3.031,0.54 -2.987,-4.016 -0.044,-2.986 -0.435,-5.359 2.209,-5.589 0,0 13.888,-0.502 20.814,-0.363 2.928,0.058 5.16,2.202 4.407,5.831 M 19.517,20.875 C 22.246,17.35 22.792,10.359 22.792,10.359 22.808,-8.212 8.906,-16.726 -4.028,-16.896 -16.962,-17.066 -26.889,-17 -38.32,-17.055 c -2.601,-0.011 -2.951,1.365 -3.026,4.281 -0.075,2.916 0.072,44.337 -0.017,66.505 -0.013,3.203 0.518,4.409 4.334,4.409 3.817,0 24.959,0.108 37.434,-0.095 8.338,-0.136 17.271,-7.734 19.383,-15.93 1.641,-5.325 1.19,-10.562 -1.439,-15.378 -1.427,-2.615 -1.166,-3.387 1.168,-5.862"
             inkscape:connector-curvature="0" />
        </g>
        <g
           transform="translate(590.7411,421.7836)"
           id="g24">
          <path
             id="path26"
             style="fill:#10bcac;fill-opacity:1;fill-rule:nonzero;stroke:none"
             d="m 0,0 c 0.006,18.707 12.139,35.594 33.088,38.903 12.248,1.934 22.352,-1.786 31.689,-9.064 1.59,-1.239 3.052,-2.618 2.957,-4.902 -2.856,-2.52 -5.749,-5 -8.557,-7.571 -2.066,-1.891 -3.881,-1.943 -6.081,-0.047 -3.051,2.631 -6.606,4.427 -10.672,4.998 -8.68,1.219 -15.789,-1.76 -20.978,-8.644 -5.619,-7.453 -5.261,-15.586 -1.583,-23.803 9.048,-13.155 22.104,-15.029 34.567,-4.978 0.958,0.773 1.83,2.304 3.344,1.108 3.929,-3.103 9.009,-4.996 10.932,-10.242 C 59.19,-35.253 49.586,-39.512 32.829,-37.648 16.071,-35.784 -1.408,-18.617 0,0"
             inkscape:connector-curvature="0" />
        </g>
        <g
           transform="translate(471.4218,422.7748)"
           id="g28">
          <path
             id="path30"
             style="fill:#10bcac;fill-opacity:1;fill-rule:nonzero;stroke:none"
             d="m 0,0 c -1.103,-3.375 -2.863,-8.016 -3.025,-9.153 -0.162,-1.137 -1.28,-2.769 3.068,-3.023 2.759,-0.162 3.12,1.326 2.865,3.096 C 2.761,-8.061 1.469,-3.369 0,0 m 14.097,-37.53 c -1.363,0.63 -0.831,8.349 -7.737,8.285 -4.282,-0.212 -8.583,-0.086 -12.875,-0.067 -1.567,0.007 -3.214,-0.033 -3.348,-2.026 -0.429,-6.376 -2.606,-5.952 -9.461,-6.087 -0.582,0.056 -4.284,-0.087 -6.428,-0.15 -2.954,0.433 -3.083,2 -2.235,4.54 2.954,8.847 5.721,17.757 8.512,26.658 4.191,13.37 8.521,26.702 12.378,40.168 0.905,3.158 2.218,4.007 5.109,3.835 3.857,-0.229 8.409,1.386 10.042,-4.159 1.149,-5.277 4.915,-15.361 4.915,-15.361 l 2.175,-6.22 3.78,-11.294 c 0,0 6.734,-21.786 10.101,-32.679 0.64,-4.757 -1.509,-5.5 -6.012,-5.378 -5.081,-0.039 -7.553,-0.695 -8.916,-0.065"
             inkscape:connector-curvature="0" />
        </g>
        <g
           transform="translate(789.6312,385.2137)"
           id="g32">
          <path
             id="path34"
             style="fill:#10bcac;fill-opacity:1;fill-rule:nonzero;stroke:none"
             d="m 0,0 c -2.317,0.254 -2.222,1.92 -2.227,3.642 -0.025,8.75 0.249,17.504 -0.663,26.239 -0.196,1.879 -0.811,3.516 -1.575,5.141 -5.522,11.744 -11.016,23.501 -16.661,35.186 -1.76,3.644 -1.132,4.956 3.113,5.018 13.709,0.202 13.686,0.306 18.816,-12.284 1.272,-3.123 1.972,-8.193 5.082,-8.234 3.108,-0.042 3.447,5.195 5.008,8.114 0.388,0.725 0.778,1.45 1.155,2.182 5.724,11.1 6.08,11.191 18.697,10.229 2.921,-0.223 3.212,-1.62 3.018,-3.84 C 27.585,58.392 21.4,45.394 15.245,32.383 14.899,31.651 14.62,30.811 14.601,30.015 14.45,23.599 14.309,17.183 14.279,10.766 14.23,0.232 14.266,0.237 3.969,0.162 2.646,0.153 1.323,0.056 0,0"
             inkscape:connector-curvature="0" />
        </g>
        <g
           transform="translate(531.6497,385.227)"
           id="g36">
          <path
             id="path38"
             style="fill:#10bcac;fill-opacity:1;fill-rule:nonzero;stroke:none"
             d="m 0,0 c -1.867,0.304 -2.223,1.534 -2.243,3.232 -0.102,8.598 0.409,17.204 -0.664,25.797 -0.25,2.002 -0.535,3.866 -1.383,5.659 -5.561,11.772 -11.079,23.565 -16.722,35.297 -1.665,3.462 -1.367,5.091 3.009,5.224 13.676,0.418 13.643,0.509 18.836,-12.329 1.265,-3.126 1.962,-8.048 5.135,-8.237 2.768,-0.165 3.202,5.013 4.899,7.691 0.351,0.554 0.645,1.148 0.925,1.743 5.522,11.74 5.517,11.633 18.565,11.151 3.002,-0.111 3.818,-1.233 3.453,-3.879 C 30.08,63.557 26.77,55.528 22.524,48.029 16.115,36.707 13.535,24.858 14.222,11.87 14.833,0.303 14.317,0.278 2.491,0.148 1.66,0.139 0.83,0.051 0,0"
             inkscape:connector-curvature="0" />
        </g>
        <g
           transform="translate(707.4066,443.4395)"
           id="g40">
          <path
             id="path42"
             style="fill:#10bcac;fill-opacity:1;fill-rule:nonzero;stroke:none"
             d="m 0,0 c -1.503,0.314 -2.928,0.606 -2.888,2.692 0.073,3.822 -0.02,7.647 0.033,11.47 0.034,2.47 1.725,2.882 3.762,2.88 15.461,-0.016 30.922,-0.062 46.383,0.036 3.021,0.02 3.559,-1.779 3.889,-4.052 C 51.091,10.208 50.867,7.387 50.953,4.575 51.051,1.408 49.818,-0.004 46.556,0.167 43.24,0.34 39.899,0.061 36.587,0.27 c -2.88,0.182 -3.678,-0.939 -3.637,-3.719 0.145,-9.699 0.064,-19.401 0.065,-29.103 10e-4,-7.147 -0.1,-14.297 0.04,-21.442 0.059,-2.982 -0.929,-4.246 -4.018,-4.099 -3.312,0.157 -6.641,-0.059 -9.964,-0.111 -2.746,0.067 -2.996,1.828 -2.976,4.052 0.075,8.293 0.062,16.588 0.024,24.882 -0.039,8.498 -0.222,25.493 -0.222,25.493 0,0 0.59,4.004 -2.96,4.019 C 8.631,0.26 4.314,0.062 0,0"
             inkscape:connector-curvature="0" />
        </g>
        <g
           transform="translate(677.6052,385.2256)"
           id="g44">
          <path
             id="path46"
             style="fill:#10bcac;fill-opacity:1;fill-rule:nonzero;stroke:none"
             d="m 0,0 c -2.697,0.329 -2.841,2.244 -2.838,4.382 0.026,22.191 0.055,44.381 -0.018,66.571 -0.011,3.218 0.97,4.259 4.404,4.246 0,0 5.068,0.076 8.473,0.021 3.405,-0.055 3.953,-1.43 4.103,-4.006 C 14.064,56.999 13.994,42.784 13.95,28.568 13.924,20.416 13.825,12.26 13.997,4.111 14.062,1.032 13.006,-0.034 9.974,0.12 6.66,0.289 3.325,0.057 0,0"
             inkscape:connector-curvature="0" />
        </g>
        <g
           transform="translate(698.2941,321.7742)"
           id="g48">
          <path
             id="path50"
             style="fill:#fefefe;fill-opacity:1;fill-rule:nonzero;stroke:none"
             d="m 0,0 c -3.224,0.001 -5.709,-0.034 -7.004,2.387 -1.199,2.24 -0.606,4.408 0.709,6.555 1.068,1.744 2.512,2.968 3.984,4.315 2.158,1.974 3.35,2.684 4.618,-0.808 C 2.875,10.882 4.569,9.526 6.056,8.529 10.402,5.618 8.448,3.82 5.21,1.936 3.3,0.825 1.396,-0.096 0,0"
             inkscape:connector-curvature="0" />
        </g>
        <g
           transform="translate(712.4964,335.6379)"
           id="g52">
          <path
             id="path54"
             style="fill:#fefefe;fill-opacity:1;fill-rule:nonzero;stroke:none"
             d="m 0,0 c -0.709,-1.092 0.381,-3.97 -2.184,-3.42 -2.78,0.597 -4.899,2.704 -5.489,5.738 -0.508,2.616 1.717,2.581 3.203,2.658 C -1.265,5.14 -0.213,2.967 0,0"
             inkscape:connector-curvature="0" />
        </g>
      </g>
    </g>
    <g
       id="g56"
       style="fill:#ffffff"
       transform="translate(-37.349,-3.545)">
      <g
         clip-path="url(#clipPath62)"
         id="g58"
         style="fill:#ffffff">
        <g
           transform="translate(405.3792,405.7745)"
           id="g64"
           style="fill:#ffffff">
          <path
             id="path66"
             style="fill:#ffffff;fill-opacity:1;fill-rule:nonzero;stroke:none"
             d="m 0,0 c 5.246,-0.009 7.053,4.389 5.489,10.218 -1.13,3.661 -4.085,4.514 -7.379,4.617 -3.809,0.118 -7.623,0.044 -11.436,0.045 -11.527,0.003 -11.528,0.002 -11.099,-11.587 0.03,-0.822 0.121,-1.797 0.177,-2.448 0.056,-0.651 0.391,-0.573 2.536,-0.635 2.145,-0.063 14.607,-0.134 21.911,-0.2 M 3.47,37.257 c -0.368,3.45 -2.872,4.087 -5.652,4.115 -6.263,0.062 -12.528,-0.029 -18.791,0.022 -0.928,0.007 -3.031,0.54 -2.987,-4.016 -0.044,-2.986 -0.435,-5.359 2.209,-5.589 0,0 13.888,-0.502 20.814,-0.363 2.928,0.058 5.16,2.202 4.407,5.831 M 19.517,20.875 C 22.246,17.35 22.792,10.359 22.792,10.359 22.808,-8.212 8.906,-16.726 -4.028,-16.896 -16.962,-17.066 -26.889,-17 -38.32,-17.055 c -2.601,-0.011 -2.951,1.365 -3.026,4.281 -0.075,2.916 0.072,44.337 -0.017,66.505 -0.013,3.203 0.518,4.409 4.334,4.409 3.817,0 24.959,0.108 37.434,-0.095 8.338,-0.136 17.271,-7.734 19.383,-15.93 1.641,-5.325 1.19,-10.562 -1.439,-15.378 -1.427,-2.615 -1.166,-3.387 1.168,-5.862"
             inkscape:connector-curvature="0" />
        </g>
        <g
           transform="translate(588.2411,425.2836)"
           id="g68"
           style="fill:#ffffff">
          <path
             id="path70"
             style="fill:#ffffff;fill-opacity:1;fill-rule:nonzero;stroke:none"
             d="m 0,0 c 0.006,18.707 12.139,35.594 33.088,38.903 12.248,1.934 22.352,-1.786 31.689,-9.064 1.59,-1.239 3.052,-2.618 2.957,-4.902 -2.856,-2.52 -5.749,-5 -8.557,-7.571 -2.066,-1.891 -3.881,-1.943 -6.081,-0.047 -3.051,2.631 -6.606,4.427 -10.672,4.998 -8.68,1.219 -15.789,-1.76 -20.978,-8.644 -5.619,-7.453 -5.261,-15.586 -1.583,-23.803 9.048,-13.155 22.104,-15.029 34.567,-4.978 0.958,0.773 1.83,2.304 3.344,1.108 3.929,-3.103 9.009,-4.996 10.932,-10.242 C 59.19,-35.253 49.586,-39.512 32.829,-37.648 16.071,-35.784 -1.408,-18.617 0,0"
             inkscape:connector-curvature="0" />
        </g>
        <g
           transform="translate(468.9218,426.2748)"
           id="g72"
           style="fill:#ffffff">
          <path
             id="path74"
             style="fill:#ffffff;fill-opacity:1;fill-rule:nonzero;stroke:none"
             d="m 0,0 c -1.103,-3.375 -2.863,-8.016 -3.025,-9.153 -0.162,-1.137 -1.28,-2.769 3.068,-3.023 2.759,-0.162 3.12,1.326 2.865,3.096 C 2.761,-8.061 1.469,-3.369 0,0 m 14.097,-37.53 c -1.363,0.63 -0.831,8.349 -7.737,8.285 -4.282,-0.212 -8.583,-0.086 -12.875,-0.067 -1.567,0.007 -3.214,-0.033 -3.348,-2.026 -0.429,-6.376 -2.606,-5.952 -9.461,-6.087 -0.582,0.056 -4.284,-0.087 -6.428,-0.15 -2.954,0.433 -3.083,2 -2.235,4.54 2.954,8.847 5.721,17.757 8.512,26.658 4.191,13.37 8.521,26.702 12.378,40.168 0.905,3.158 2.218,4.007 5.109,3.835 3.857,-0.229 8.409,1.386 10.042,-4.159 1.149,-5.277 4.915,-15.361 4.915,-15.361 l 2.175,-6.22 3.78,-11.294 c 0,0 6.734,-21.786 10.101,-32.679 0.64,-4.757 -1.509,-5.5 -6.012,-5.378 -5.081,-0.039 -7.553,-0.695 -8.916,-0.065"
             inkscape:connector-curvature="0" />
        </g>
        <g
           transform="translate(787.1312,388.7137)"
           id="g76"
           style="fill:#ffffff">
          <path
             id="path78"
             style="fill:#ffffff;fill-opacity:1;fill-rule:nonzero;stroke:none"
             d="m 0,0 c -2.317,0.254 -2.222,1.92 -2.227,3.642 -0.025,8.75 0.249,17.504 -0.663,26.239 -0.196,1.879 -0.811,3.516 -1.575,5.141 -5.522,11.744 -11.016,23.501 -16.661,35.186 -1.76,3.644 -1.132,4.956 3.113,5.018 13.709,0.202 13.686,0.306 18.816,-12.284 1.272,-3.123 1.972,-8.193 5.082,-8.234 3.108,-0.042 3.447,5.195 5.008,8.114 0.388,0.725 0.778,1.45 1.155,2.182 5.724,11.1 6.08,11.191 18.697,10.229 2.921,-0.223 3.212,-1.62 3.018,-3.84 C 27.585,58.392 21.4,45.394 15.245,32.383 14.899,31.651 14.62,30.811 14.601,30.015 14.45,23.599 14.309,17.183 14.279,10.766 14.23,0.232 14.266,0.237 3.969,0.162 2.646,0.153 1.323,0.056 0,0"
             inkscape:connector-curvature="0" />
        </g>
        <g
           transform="translate(529.1497,388.727)"
           id="g80"
           style="fill:#ffffff">
          <path
             id="path82"
             style="fill:#ffffff;fill-opacity:1;fill-rule:nonzero;stroke:none"
             d="m 0,0 c -1.867,0.304 -2.223,1.534 -2.243,3.232 -0.102,8.598 0.409,17.204 -0.664,25.797 -0.25,2.002 -0.535,3.866 -1.383,5.659 -5.561,11.772 -11.079,23.565 -16.722,35.297 -1.665,3.462 -1.367,5.091 3.009,5.224 13.676,0.418 13.643,0.509 18.836,-12.329 1.265,-3.126 1.962,-8.048 5.135,-8.237 2.768,-0.165 3.202,5.013 4.899,7.691 0.351,0.554 0.645,1.148 0.925,1.743 5.522,11.74 5.517,11.633 18.565,11.151 3.002,-0.111 3.818,-1.233 3.453,-3.879 C 30.08,63.557 26.77,55.528 22.524,48.029 16.115,36.707 13.535,24.858 14.222,11.87 14.833,0.303 14.317,0.278 2.491,0.148 1.66,0.139 0.83,0.051 0,0"
             inkscape:connector-curvature="0" />
        </g>
        <g
           transform="translate(704.9066,446.9395)"
           id="g84"
           style="fill:#ffffff">
          <path
             id="path86"
             style="fill:#ffffff;fill-opacity:1;fill-rule:nonzero;stroke:none"
             d="m 0,0 c -1.503,0.314 -2.928,0.606 -2.888,2.692 0.073,3.822 -0.02,7.647 0.033,11.47 0.034,2.47 1.725,2.882 3.762,2.88 15.461,-0.016 30.922,-0.062 46.383,0.036 3.021,0.02 3.559,-1.779 3.889,-4.052 C 51.091,10.208 50.867,7.387 50.953,4.575 51.051,1.408 49.818,-0.004 46.556,0.167 43.24,0.34 39.899,0.061 36.587,0.27 c -2.88,0.182 -3.678,-0.939 -3.637,-3.719 0.145,-9.699 0.064,-19.401 0.065,-29.103 10e-4,-7.147 -0.1,-14.297 0.04,-21.442 0.059,-2.982 -0.929,-4.246 -4.018,-4.099 -3.312,0.157 -6.641,-0.059 -9.964,-0.111 -2.746,0.067 -2.996,1.828 -2.976,4.052 0.075,8.293 0.062,16.588 0.024,24.882 -0.039,8.498 -0.222,25.493 -0.222,25.493 0,0 0.59,4.004 -2.96,4.019 C 8.631,0.26 4.314,0.062 0,0"
             inkscape:connector-curvature="0" />
        </g>
        <g
           transform="translate(675.1052,388.7256)"
           id="g88"
           style="fill:#ffffff">
          <path
             id="path90"
             style="fill:#ffffff;fill-opacity:1;fill-rule:nonzero;stroke:none"
             d="m 0,0 c -2.697,0.329 -2.841,2.244 -2.838,4.382 0.026,22.191 0.055,44.381 -0.018,66.571 -0.011,3.218 0.97,4.259 4.404,4.246 0,0 5.068,0.076 8.473,0.021 3.405,-0.055 3.953,-1.43 4.103,-4.006 C 14.064,56.999 13.994,42.784 13.95,28.568 13.924,20.416 13.825,12.26 13.997,4.111 14.062,1.032 13.006,-0.034 9.974,0.12 6.66,0.289 3.325,0.057 0,0"
             inkscape:connector-curvature="0" />
        </g>
      </g>
    </g>
    <g
       id="g92"
       style="fill:#ffffff"
       transform="translate(-27.535802,-16.495021)">
      <g
         clip-path="url(#clipPath98)"
         id="g94"
         style="fill:#ffffff">
        <g
           transform="translate(712.4964,335.6379)"
           id="g100"
           style="fill:#ffffff">
          <path
             id="path102"
             style="fill:#ffffff;fill-opacity:1;fill-rule:nonzero;stroke:none"
             d="M 0,0 C -0.213,2.967 -1.265,5.14 -4.47,4.976 -5.956,4.899 -8.181,4.934 -7.673,2.318 -7.083,-0.716 -4.964,-2.823 -2.184,-3.42 0.381,-3.97 -0.709,-1.092 0,0 m -14.37,-13.853 c 1.393,-0.127 3.318,0.75 5.252,1.818 3.28,1.811 5.274,3.564 0.995,6.573 -1.465,1.03 -3.127,2.424 -3.66,4.003 -1.189,3.52 -2.397,2.837 -4.599,0.912 -1.501,-1.313 -2.973,-2.504 -4.08,-4.224 -1.363,-2.117 -2.005,-4.271 -0.857,-6.538 1.241,-2.449 3.725,-2.47 6.949,-2.544 m -79.55,26.837 c 3.45,-1.326 5.924,0.71 8.633,0.976 2.434,0.239 5.496,3.201 7.07,-0.083 1.254,-2.617 -2.467,-3.842 -4.102,-5.465 -4.709,-4.674 -9.044,-9.589 -12.624,-15.675 4.493,-1.448 7.304,1.044 9.8,3.427 5.413,5.17 10.541,10.637 15.801,15.968 1.512,1.532 3.382,3.714 5.367,1.61 1.67,-1.771 -0.358,-3.574 -1.784,-5.007 -3.85,-3.869 -7.679,-7.737 -10.006,-12.824 -0.865,-1.891 -1.752,-3.791 -0.368,-5.568 1.292,-1.66 3.458,-1.119 5.175,-0.844 4.155,0.667 7.749,2.781 11.138,5.169 5.465,3.85 10.199,8.515 14.543,13.572 0.822,0.957 1.902,2.192 1.418,3.466 -0.499,1.311 -2.046,0.491 -3.119,0.652 -1.512,0.226 -3.661,-0.567 -3.522,2.184 0.138,2.748 2.413,2.041 3.762,1.807 5.187,-0.897 8.229,1.395 10.416,5.872 0.919,1.881 2.684,3.358 4.107,4.981 1.001,1.141 2.203,1.59 3.443,0.396 1.171,-1.128 0.951,-2.342 0,-3.557 -1.494,-1.91 -4.454,-3.864 -3.472,-6.079 0.892,-2.012 4.229,-0.176 6.426,-0.705 0.961,-0.231 1.896,-0.597 2.867,-0.759 1.175,-0.196 2.494,-0.209 2.346,-1.876 -0.141,-1.581 -1.232,-2.232 -2.748,-2.236 -3.664,-0.009 -7.333,-0.113 -10.993,0.021 -2.25,0.082 -3.514,-0.64 -4.651,-2.739 -2.584,-4.772 -5.655,-9.278 -8.417,-13.958 -1.005,-1.704 -2.024,-3.788 -0.583,-5.554 1.635,-2.003 4.178,-1.259 6.073,-0.507 7.074,2.809 13.902,6.113 19.232,11.817 3.684,3.942 8.004,6.671 13.343,8.098 C -0.027,12.055 4.539,8.808 4.478,-0.792 4.473,-1.611 4.477,-2.43 4.477,-3.461 c 3.312,0.146 5.637,2.195 8.299,3.347 1.844,0.798 3.643,1.7 5.72,1.467 2.214,-0.248 3.962,-1.384 3.845,-3.715 -0.11,-2.206 -2.203,-1.572 -3.714,-2.068 -7.502,-2.466 -15.893,-3.024 -21.767,-9.262 -4.599,-4.885 -10.435,-5.74 -16.531,-4.71 -4.736,0.801 -7.319,4.305 -7.986,9.44 -3.804,-1.889 -7.248,-3.474 -10.569,-5.284 -3.453,-1.882 -7.208,-1.793 -10.732,-1.183 -3.809,0.659 -5.138,3.829 -4.423,8.433 -4.528,-2.931 -8.317,-5.485 -12.6,-7.08 -7.518,-2.802 -10.706,-1.971 -15.557,4.545 -1.247,1.673 -1.941,0.428 -2.823,0.035 -3.157,-1.405 -6.118,-3.198 -9.472,-4.228 -2.02,-0.62 -3.787,-1.309 -5.479,0.491 -1.779,1.895 -1.206,3.851 -0.41,6.005 1.977,5.347 5.915,9.437 9.086,14.37 -3.481,0.906 -5.922,0.198 -8.324,-2.447 -5.368,-5.909 -11.525,-11.006 -17.808,-15.929 -0.262,-0.206 -0.504,-0.441 -0.781,-0.622 -3.884,-2.537 -8.5,-4.886 -12.287,-1.505 -3.658,3.266 -1.941,8.3 -0.604,12.594 0.389,1.251 1.114,2.398 1.775,3.783 -2.479,0.944 -3.825,0.069 -5.321,-1.926 -4.626,-6.17 -10.193,-11.447 -17.296,-14.637 -4.461,-2.003 -9.34,-4.537 -13.257,1.299 -1.243,1.852 -2.579,0.068 -3.322,-0.511 -2.568,-2 -5.444,-3.22 -8.549,-3.709 -4.769,-0.751 -7.496,2.434 -6.396,7.108 1.92,8.147 7.246,14.352 11.964,20.887 0.663,0.918 1.653,2.416 3.256,1.27 1.759,-1.256 1.344,-2.92 0.394,-4.402 -2.581,-4.027 -6.004,-7.494 -7.957,-11.947 -0.533,-1.215 -1.109,-2.416 -1.751,-3.576 -0.759,-1.374 -1.427,-2.935 -0.19,-4.116 1.138,-1.085 2.471,0.098 3.615,0.644 6.576,3.136 10.219,9.302 14.769,14.501 2.276,2.601 4.216,5.506 6.183,8.36 1.027,1.49 2.013,2.884 3.936,1.56 1.931,-1.331 0.882,-2.925 0,-4.348 -3.033,-4.897 -6.15,-9.742 -9.132,-14.67 -0.903,-1.494 -2.282,-3.739 -1.321,-4.867 1.536,-1.804 3.685,-0.01 5.387,0.825 4.38,2.148 7.836,5.481 11.252,8.906 2.074,2.08 2.392,3.351 -0.153,5.446 -3.223,2.652 -2.595,6.38 1.217,10.749 3.158,3.619 7.58,4.523 10.569,2.235 1.747,-1.338 2.537,-3.036 2.254,-5.195 -0.541,-4.125 1.28,-3.978 4.202,-2.522 3.083,1.537 6.291,2.823 9.455,4.197 1.359,0.59 3.063,1.528 4.022,-0.066 1.034,-1.718 -0.239,-2.992 -1.774,-4.049 -4.427,-3.049 -8.08,-6.864 -10.958,-11.436 -0.978,-1.553 -1.709,-3.154 -2.275,-4.894 -0.412,-1.269 -1.357,-2.636 0.001,-3.579 1.116,-0.774 2.475,-0.186 3.71,0.545 2.275,1.347 4.526,2.687 6.406,4.583 2.111,2.128 4.185,4.303 6.413,6.305 2.644,2.376 4.857,4.243 1.768,8.298 -2.589,3.397 0.167,6.573 2.698,9.127 2.502,2.524 5.646,4.137 8.984,2.421 3.627,-1.864 4.435,-5.187 1.942,-8.848"
             inkscape:connector-curvature="0" />
        </g>
        <g
           transform="translate(511.8135,340.3983)"
           id="g104"
           style="fill:#ffffff">
          <path
             id="path106"
             style="fill:#ffffff;fill-opacity:1;fill-rule:nonzero;stroke:none"
             d="M 0,0 C 2.786,0.318 5.595,0.492 8.231,1.609 16.314,5.034 17.718,13.65 11.298,19.461 8.137,22.323 5.873,21.777 3.754,18.429 0.919,13.952 -0.614,8.876 -2.881,4.142 -4.513,0.733 -3.684,-0.512 0,0 m 7.261,-3.054 c 5.588,-5.198 7.028,-11.71 4.057,-17.744 -3.499,-7.108 -12.36,-12.605 -18.897,-11.365 -3.705,0.702 -7.034,2.248 -6.96,6.994 0.063,4.05 4.511,9.293 8.448,9.794 0.821,0.104 1.664,0.063 2.496,0.039 2.145,-0.062 4.991,0.16 4.652,-2.906 -0.318,-2.875 -2.542,-1.988 -4.594,-1.262 -2.511,0.889 -3.947,-1.185 -5.352,-2.786 -1.101,-1.253 -1.182,-2.862 -0.181,-4.133 1.347,-1.709 3.426,-1.103 5.154,-0.877 4.903,0.644 11.036,6.467 12.202,11.267 1.197,4.921 -1.959,7.586 -5.498,9.464 -6.107,3.24 -9.071,1.942 -12.575,-4.069 -4.804,-8.24 -10.546,-15.814 -18.8,-20.871 -7.739,-4.742 -16.264,-6.694 -25.127,-3.757 -6.839,2.265 -8.799,10.671 -3.948,15.225 0.843,0.791 1.644,1.792 2.943,1.647 1.711,-0.191 4.161,1.104 4.976,-0.819 0.959,-2.265 -1.126,-2.762 -3.074,-3.343 -2.016,-0.602 -2.257,-2.691 -1.996,-4.612 0.42,-3.084 2.751,-3.933 5.342,-4.224 8.465,-0.954 15.931,1.194 22.522,6.806 8.723,7.426 13.983,17.072 18.455,27.319 2.698,6.182 4.775,12.694 8.875,18.163 1.57,2.093 1.054,2.554 -1.217,3.135 -5.868,1.499 -11.472,0.309 -17.048,-1.286 -9.024,-2.581 -17.106,-6.85 -23.685,-13.679 -2.747,-2.852 -4.307,-6.16 -3.924,-10.256 0.699,-7.462 7.062,-11.285 13.951,-8.249 3.647,1.607 6.878,3.92 10.087,6.263 1.075,0.785 2.603,1.544 3.565,0.269 0.923,-1.224 0.743,-2.911 -0.661,-3.985 -4.993,-3.818 -10.029,-7.652 -16.555,-8.362 -8.049,-0.875 -13.797,4.762 -14.544,12.749 -0.944,10.091 5.209,15.706 12.038,20.889 8.609,6.533 18.721,9.841 29.302,10.927 8.726,0.896 16.837,-1.176 24.013,-7.148 8.132,-6.767 5.239,-18.948 -3.55,-23.068 -1.587,-0.744 -3.21,-1.413 -4.892,-2.149"
             inkscape:connector-curvature="0" />
        </g>
        <g
           transform="translate(651.8388,352.1624)"
           id="g108"
           style="fill:#ffffff">
          <path
             id="path110"
             style="fill:#ffffff;fill-opacity:1;fill-rule:nonzero;stroke:none"
             d="m 0,0 c -1.643,0.104 -2.964,1.085 -2.635,2.409 0.62,2.495 2.322,4.311 5.18,4.472 C 4.018,6.964 5.343,6.628 5.053,4.768 4.606,1.89 2.158,1.026 0,0"
             inkscape:connector-curvature="0" />
        </g>
        <g
           transform="translate(573.5364,344.6586)"
           id="g112"
           style="fill:#ffffff">
          <path
             id="path114"
             style="fill:#ffffff;fill-opacity:1;fill-rule:nonzero;stroke:none"
             d="M 0,0 C -0.389,2.363 0.611,4.675 2.809,6.072 4.704,7.277 5.363,5.521 5.88,4.38 6.997,1.916 0.359,-2.182 0,0"
             inkscape:connector-curvature="0" />
        </g>
        <g
           transform="translate(609.0989,347.7211)"
           id="g116"
           style="fill:#ffffff">
          <path
             id="path118"
             style="fill:#ffffff;fill-opacity:1;fill-rule:nonzero;stroke:none"
             d="M 0,0 C -0.389,2.363 0.611,4.675 2.809,6.072 4.704,7.277 5.363,5.521 5.88,4.38 6.997,1.916 0.359,-2.182 0,0"
             inkscape:connector-curvature="0" />
        </g>
      </g>
    </g>
    <text
       id="text122"
       style="font-variant:normal;font-weight:500;font-stretch:normal;font-size:19.75117302px;font-family:CorpusGothic;-inkscape-font-specification:CorpusGothic;writing-mode:lr-tb;fill:#ffffff;fill-opacity:1;fill-rule:nonzero;stroke:none;stroke-width:0.99999994;"
       transform="scale(0.94878721,-1.0539771)"
       x="432.6803"
       y="-477.19409">
      <tspan
         id="tspan120"
         y="-477.19409"
         x="432.6803 451.46365 469.694 487.39105 505.91763 520.55328 538.03314 555.7301 574.51349 593.31659 612.09991 630.8833 645.51892 662.99872 681.80182 695.80548 714.33197 733.13513"
         style="fill:#ffffff;stroke-width:0.99999994;">BAYCITYBURRITO.COM</tspan>
    </text>
    <g
       id="g124"
       style="fill:#ffffff;stroke-width:0.86049271"
       transform="matrix(1,0,0,1.3505343,9.7939019,-140.0053)">
      <g
         clip-path="url(#clipPath130)"
         id="g126"
         style="fill:#ffffff;stroke-width:0.86548418"
         transform="matrix(0.9884988,0,0,1,-29.408381,-19.834845)">
        <g
           transform="translate(444.5439,495.417)"
           id="g132"
           style="fill:#ffffff;stroke-width:0.86548418">
          <path
             id="path134"
             style="fill:#ffffff;stroke:#10bcac;stroke-width:0.86548418;stroke-linecap:butt;stroke-linejoin:miter;stroke-miterlimit:10;stroke-dasharray:none;stroke-opacity:1"
             d="m 0,0 c -0.475,-0.5 -1.245,-0.75 -2.309,-0.75 h -4.066 v 10.943 h 3.934 c 1,0 1.729,-0.215 2.185,-0.646 C 0.2,9.117 0.428,8.414 0.428,7.438 0.428,6.78 0.326,6.254 0.124,5.861 -0.079,5.469 -0.453,5.196 -0.998,5.044 -0.427,4.981 0,4.715 0.285,4.247 0.57,3.778 0.712,3.164 0.712,2.403 0.712,1.301 0.475,0.5 0,0 Z M -2.29,7.933 C -2.416,8.11 -2.644,8.199 -2.974,8.199 H -3.829 V 5.767 h 0.818 c 0.367,0 0.611,0.097 0.731,0.294 0.12,0.196 0.18,0.522 0.18,0.979 0,0.418 -0.063,0.715 -0.19,0.893 z M -2.109,3.639 C -2.229,3.841 -2.473,3.942 -2.84,3.942 H -3.829 V 1.264 h 1.008 c 0.329,0 0.56,0.107 0.693,0.322 0.133,0.216 0.2,0.558 0.2,1.026 0,0.482 -0.061,0.824 -0.181,1.027 z"
             inkscape:connector-curvature="0" />
        </g>
        <g
           transform="translate(460.7222,494.6665)"
           id="g136"
           style="fill:#ffffff;stroke-width:0.86548418">
          <path
             id="path138"
             style="fill:#ffffff;stroke:#10bcac;stroke-width:0.86548418;stroke-linecap:butt;stroke-linejoin:miter;stroke-miterlimit:10;stroke-dasharray:none;stroke-opacity:1"
             d="M 0,0 -0.304,1.957 H -2.318 L -2.641,0 h -2.546 l 2.185,10.944 h 3.42 L 2.584,0 Z M -1.292,8.607 -2.033,3.99 h 1.463 z"
             inkscape:connector-curvature="0" />
        </g>
        <g
           transform="translate(477.9741,498.7515)"
           id="g140"
           style="fill:#ffffff;stroke-width:0.86548418">
          <path
             id="path142"
             style="fill:#ffffff;stroke:#10bcac;stroke-width:0.86548418;stroke-linecap:butt;stroke-linejoin:miter;stroke-miterlimit:10;stroke-dasharray:none;stroke-opacity:1"
             d="m 0,0 v -4.085 h -2.565 v 4.066 l -2.47,6.878 h 2.546 l 1.197,-4.256 1.159,4.256 H 2.47 Z"
             inkscape:connector-curvature="0" />
        </g>
        <g
           transform="translate(497.4585,496.5283)"
           id="g144"
           style="fill:#ffffff;stroke-width:0.86548418">
          <path
             id="path146"
             style="fill:#ffffff;stroke:#10bcac;stroke-width:0.86548418;stroke-linecap:butt;stroke-linejoin:miter;stroke-miterlimit:10;stroke-dasharray:none;stroke-opacity:1"
             d="m 0,0 c -0.146,-0.494 -0.368,-0.893 -0.665,-1.197 -0.298,-0.304 -0.662,-0.522 -1.093,-0.656 -0.43,-0.132 -0.93,-0.199 -1.501,-0.199 -0.772,0 -1.399,0.108 -1.881,0.323 -0.481,0.215 -0.855,0.522 -1.121,0.922 -0.265,0.399 -0.446,0.88 -0.541,1.444 -0.095,0.563 -0.143,1.194 -0.143,1.89 v 2.242 c 0,0.684 0.051,1.302 0.153,1.853 0.101,0.551 0.288,1.019 0.56,1.406 0.272,0.386 0.649,0.687 1.13,0.902 0.481,0.216 1.096,0.323 1.843,0.323 0.583,0 1.09,-0.057 1.52,-0.171 0.431,-0.114 0.789,-0.304 1.074,-0.57 0.285,-0.266 0.494,-0.62 0.627,-1.064 0.133,-0.443 0.2,-0.994 0.2,-1.653 V 5.111 h -2.49 v 0.627 c 0,0.228 -0.025,0.444 -0.076,0.646 -0.051,0.202 -0.139,0.371 -0.265,0.504 -0.127,0.133 -0.317,0.199 -0.571,0.199 -0.671,0 -1.007,-0.462 -1.007,-1.387 V 1.444 c 0,-0.405 0.082,-0.725 0.247,-0.959 0.165,-0.235 0.412,-0.352 0.741,-0.352 0.266,0 0.466,0.092 0.599,0.276 0.133,0.183 0.222,0.399 0.266,0.646 0.044,0.247 0.066,0.503 0.066,0.769 V 2.489 H 0.218 V 1.824 C 0.218,1.102 0.146,0.494 0,0 Z"
             inkscape:connector-curvature="0" />
        </g>
        <path
           id="path148"
           style="fill:#ffffff;stroke:#10bcac;stroke-width:0.86548418;stroke-linecap:butt;stroke-linejoin:miter;stroke-miterlimit:10;stroke-dasharray:none;stroke-opacity:1"
           d="m 508.792,505.61 h 2.584 v -10.944 h -2.584 z"
           inkscape:connector-curvature="0" />
        <g
           transform="translate(526.8228,503.4443)"
           id="g150"
           style="fill:#ffffff;stroke-width:0.86548418">
          <path
             id="path152"
             style="fill:#ffffff;stroke:#10bcac;stroke-width:0.86548418;stroke-linecap:butt;stroke-linejoin:miter;stroke-miterlimit:10;stroke-dasharray:none;stroke-opacity:1"
             d="M 0,0 V -8.778 H -2.565 V 0 H -4.693 V 2.166 H 2.128 V 0 Z"
             inkscape:connector-curvature="0" />
        </g>
        <g
           transform="translate(543.7139,498.7515)"
           id="g154"
           style="fill:#ffffff;stroke-width:0.86548418">
          <path
             id="path156"
             style="fill:#ffffff;stroke:#10bcac;stroke-width:0.86548418;stroke-linecap:butt;stroke-linejoin:miter;stroke-miterlimit:10;stroke-dasharray:none;stroke-opacity:1"
             d="m 0,0 v -4.085 h -2.565 v 4.066 l -2.47,6.878 h 2.546 l 1.197,-4.256 1.159,4.256 H 2.47 Z"
             inkscape:connector-curvature="0" />
        </g>
        <g
           transform="translate(562.9131,495.417)"
           id="g158"
           style="fill:#ffffff;stroke-width:0.86548418">
          <path
             id="path160"
             style="fill:#ffffff;stroke:#10bcac;stroke-width:0.86548418;stroke-linecap:butt;stroke-linejoin:miter;stroke-miterlimit:10;stroke-dasharray:none;stroke-opacity:1"
             d="m 0,0 c -0.475,-0.5 -1.245,-0.75 -2.309,-0.75 h -4.066 v 10.943 h 3.934 c 1,0 1.729,-0.215 2.185,-0.646 C 0.2,9.117 0.428,8.414 0.428,7.438 0.428,6.78 0.326,6.254 0.124,5.861 -0.079,5.469 -0.453,5.196 -0.998,5.044 -0.427,4.981 0,4.715 0.285,4.247 0.57,3.778 0.712,3.164 0.712,2.403 0.712,1.301 0.475,0.5 0,0 Z M -2.29,7.933 C -2.416,8.11 -2.644,8.199 -2.974,8.199 H -3.829 V 5.767 h 0.818 c 0.367,0 0.611,0.097 0.731,0.294 0.12,0.196 0.18,0.522 0.18,0.979 0,0.418 -0.063,0.715 -0.19,0.893 z M -2.109,3.639 C -2.229,3.841 -2.473,3.942 -2.84,3.942 H -3.829 V 1.264 h 1.008 c 0.329,0 0.56,0.107 0.693,0.322 0.133,0.216 0.2,0.558 0.2,1.026 0,0.482 -0.061,0.824 -0.181,1.027 z"
             inkscape:connector-curvature="0" />
        </g>
        <g
           transform="translate(580.7065,495.2461)"
           id="g162"
           style="fill:#ffffff;stroke-width:0.86548418">
          <path
             id="path164"
             style="fill:#ffffff;stroke:#10bcac;stroke-width:0.86548418;stroke-linecap:butt;stroke-linejoin:miter;stroke-miterlimit:10;stroke-dasharray:none;stroke-opacity:1"
             d="m 0,0 c -0.558,-0.513 -1.432,-0.77 -2.622,-0.77 h -0.133 c -1.153,0 -2.001,0.257 -2.546,0.77 -0.545,0.513 -0.817,1.339 -0.817,2.479 v 7.885 h 2.584 V 2.593 c 0,-0.392 0.066,-0.684 0.2,-0.874 0.132,-0.19 0.363,-0.284 0.693,-0.284 0.329,0 0.563,0.097 0.703,0.294 0.139,0.196 0.209,0.503 0.209,0.921 v 7.714 H 0.836 V 2.499 C 0.836,1.346 0.557,0.513 0,0 Z"
             inkscape:connector-curvature="0" />
        </g>
        <g
           transform="translate(597.3691,494.6665)"
           id="g166"
           style="fill:#ffffff;stroke-width:0.86548418">
          <path
             id="path168"
             style="fill:#ffffff;stroke:#10bcac;stroke-width:0.86548418;stroke-linecap:butt;stroke-linejoin:miter;stroke-miterlimit:10;stroke-dasharray:none;stroke-opacity:1"
             d="m 0,0 c -0.088,0.291 -0.152,0.544 -0.19,0.76 -0.038,0.215 -0.057,0.481 -0.057,0.798 v 0.836 c 0,1.152 -0.386,1.729 -1.159,1.729 H -2.109 V 0 h -2.565 v 10.944 h 3.838 c 1.077,0 1.868,-0.225 2.375,-0.674 0.507,-0.45 0.76,-1.169 0.76,-2.157 V 7.562 C 2.299,6.916 2.182,6.377 1.948,5.947 1.713,5.516 1.311,5.218 0.741,5.054 1.336,4.851 1.748,4.497 1.976,3.99 2.204,3.483 2.318,2.907 2.318,2.261 v -0.76 c 0,-0.253 0.013,-0.51 0.038,-0.77 C 2.381,0.472 2.464,0.228 2.603,0 Z m -0.228,7.79 c 0,0.405 -0.082,0.703 -0.247,0.893 -0.165,0.19 -0.437,0.285 -0.817,0.285 H -2.109 V 6.042 h 0.76 c 0.406,0 0.694,0.085 0.865,0.256 0.171,0.172 0.256,0.466 0.256,0.884 z"
             inkscape:connector-curvature="0" />
        </g>
        <g
           transform="translate(615.438,494.6665)"
           id="g170"
           style="fill:#ffffff;stroke-width:0.86548418">
          <path
             id="path172"
             style="fill:#ffffff;stroke:#10bcac;stroke-width:0.86548418;stroke-linecap:butt;stroke-linejoin:miter;stroke-miterlimit:10;stroke-dasharray:none;stroke-opacity:1"
             d="m 0,0 c -0.088,0.291 -0.152,0.544 -0.19,0.76 -0.038,0.215 -0.057,0.481 -0.057,0.798 v 0.836 c 0,1.152 -0.386,1.729 -1.159,1.729 H -2.109 V 0 h -2.565 v 10.944 h 3.838 c 1.077,0 1.868,-0.225 2.375,-0.674 0.507,-0.45 0.76,-1.169 0.76,-2.157 V 7.562 C 2.299,6.916 2.182,6.377 1.948,5.947 1.713,5.516 1.311,5.218 0.741,5.054 1.336,4.851 1.748,4.497 1.976,3.99 2.204,3.483 2.318,2.907 2.318,2.261 v -0.76 c 0,-0.253 0.013,-0.51 0.038,-0.77 C 2.381,0.472 2.464,0.228 2.603,0 Z m -0.228,7.79 c 0,0.405 -0.082,0.703 -0.247,0.893 -0.165,0.19 -0.437,0.285 -0.817,0.285 H -2.109 V 6.042 h 0.76 c 0.406,0 0.694,0.085 0.865,0.256 0.171,0.172 0.256,0.466 0.256,0.884 z"
             inkscape:connector-curvature="0" />
        </g>
        <path
           id="path174"
           style="fill:#ffffff;stroke:#10bcac;stroke-width:0.86548418;stroke-linecap:butt;stroke-linejoin:miter;stroke-miterlimit:10;stroke-dasharray:none;stroke-opacity:1"
           d="m 629.004,505.61 h 2.584 v -10.944 h -2.584 z"
           inkscape:connector-curvature="0" />
        <g
           transform="translate(647.0347,503.4443)"
           id="g176"
           style="fill:#ffffff;stroke-width:0.86548418">
          <path
             id="path178"
             style="fill:#ffffff;stroke:#10bcac;stroke-width:0.86548418;stroke-linecap:butt;stroke-linejoin:miter;stroke-miterlimit:10;stroke-dasharray:none;stroke-opacity:1"
             d="M 0,0 V -8.778 H -2.565 V 0 H -4.693 V 2.166 H 2.128 V 0 Z"
             inkscape:connector-curvature="0" />
        </g>
        <g
           transform="translate(666.0254,495.4834)"
           id="g180"
           style="fill:#ffffff;stroke-width:0.86548418">
          <path
             id="path182"
             style="fill:#ffffff;stroke:#10bcac;stroke-width:0.86548418;stroke-linecap:butt;stroke-linejoin:miter;stroke-miterlimit:10;stroke-dasharray:none;stroke-opacity:1"
             d="m 0,0 c -0.577,-0.671 -1.511,-1.007 -2.803,-1.007 -1.33,0 -2.283,0.336 -2.859,1.007 -0.577,0.671 -0.864,1.723 -0.864,3.154 v 2.983 c 0,1.444 0.284,2.499 0.854,3.164 0.57,0.665 1.514,0.997 2.831,0.997 1.318,0 2.264,-0.332 2.841,-0.997 C 0.576,8.636 0.864,7.581 0.864,6.137 V 3.154 C 0.864,1.723 0.576,0.671 0,0 Z m -1.796,6.745 c 0,0.456 -0.079,0.808 -0.237,1.055 C -2.191,8.046 -2.454,8.17 -2.821,8.17 -3.189,8.17 -3.458,8.046 -3.629,7.8 -3.8,7.553 -3.886,7.201 -3.886,6.745 v -4.18 c 0,-0.456 0.086,-0.811 0.257,-1.064 0.171,-0.253 0.44,-0.38 0.808,-0.38 0.367,0 0.63,0.127 0.788,0.38 0.158,0.253 0.237,0.608 0.237,1.064 z"
             inkscape:connector-curvature="0" />
        </g>
        <path
           id="path184"
           style="fill:#ffffff;stroke:#10bcac;stroke-width:0.86548418;stroke-linecap:butt;stroke-linejoin:miter;stroke-miterlimit:10;stroke-dasharray:none;stroke-opacity:1"
           d="m 677.796,497.365 h 2.337 v -2.698 h -2.337 z"
           inkscape:connector-curvature="0" />
        <g
           transform="translate(697.9443,496.5283)"
           id="g186"
           style="fill:#ffffff;stroke-width:0.86548418">
          <path
             id="path188"
             style="fill:#ffffff;stroke:#10bcac;stroke-width:0.86548418;stroke-linecap:butt;stroke-linejoin:miter;stroke-miterlimit:10;stroke-dasharray:none;stroke-opacity:1"
             d="m 0,0 c -0.146,-0.494 -0.367,-0.893 -0.665,-1.197 -0.297,-0.304 -0.661,-0.522 -1.092,-0.656 -0.431,-0.132 -0.931,-0.199 -1.501,-0.199 -0.773,0 -1.4,0.108 -1.881,0.323 -0.482,0.215 -0.855,0.522 -1.121,0.922 -0.266,0.399 -0.447,0.88 -0.542,1.444 -0.094,0.563 -0.142,1.194 -0.142,1.89 v 2.242 c 0,0.684 0.05,1.302 0.152,1.853 0.102,0.551 0.288,1.019 0.561,1.406 0.272,0.386 0.648,0.687 1.129,0.902 0.482,0.216 1.096,0.323 1.844,0.323 0.582,0 1.089,-0.057 1.52,-0.171 0.43,-0.114 0.789,-0.304 1.073,-0.57 0.285,-0.266 0.494,-0.62 0.627,-1.064 0.134,-0.443 0.2,-0.994 0.2,-1.653 V 5.111 h -2.489 v 0.627 c 0,0.228 -0.026,0.444 -0.076,0.646 -0.051,0.202 -0.14,0.371 -0.266,0.504 -0.127,0.133 -0.317,0.199 -0.57,0.199 -0.672,0 -1.007,-0.462 -1.007,-1.387 V 1.444 c 0,-0.405 0.082,-0.725 0.247,-0.959 0.164,-0.235 0.411,-0.352 0.741,-0.352 0.266,0 0.465,0.092 0.599,0.276 0.133,0.183 0.221,0.399 0.265,0.646 0.044,0.247 0.067,0.503 0.067,0.769 V 2.489 H 0.219 V 1.824 C 0.219,1.102 0.146,0.494 0,0 Z"
             inkscape:connector-curvature="0" />
        </g>
        <g
           transform="translate(715.4062,495.4834)"
           id="g190"
           style="fill:#ffffff;stroke-width:0.86548418">
          <path
             id="path192"
             style="fill:#ffffff;stroke:#10bcac;stroke-width:0.86548418;stroke-linecap:butt;stroke-linejoin:miter;stroke-miterlimit:10;stroke-dasharray:none;stroke-opacity:1"
             d="m 0,0 c -0.577,-0.671 -1.511,-1.007 -2.803,-1.007 -1.33,0 -2.283,0.336 -2.859,1.007 -0.577,0.671 -0.864,1.723 -0.864,3.154 v 2.983 c 0,1.444 0.284,2.499 0.854,3.164 0.57,0.665 1.514,0.997 2.831,0.997 1.318,0 2.264,-0.332 2.841,-0.997 C 0.576,8.636 0.864,7.581 0.864,6.137 V 3.154 C 0.864,1.723 0.576,0.671 0,0 Z m -1.796,6.745 c 0,0.456 -0.079,0.808 -0.237,1.055 C -2.191,8.046 -2.454,8.17 -2.821,8.17 -3.189,8.17 -3.458,8.046 -3.629,7.8 -3.8,7.553 -3.886,7.201 -3.886,6.745 v -4.18 c 0,-0.456 0.086,-0.811 0.257,-1.064 0.171,-0.253 0.44,-0.38 0.808,-0.38 0.367,0 0.63,0.127 0.788,0.38 0.158,0.253 0.237,0.608 0.237,1.064 z"
             inkscape:connector-curvature="0" />
        </g>
        <g
           transform="translate(734.5293,494.6665)"
           id="g194"
           style="fill:#ffffff;stroke-width:0.86548418">
          <path
             id="path196"
             style="fill:#ffffff;stroke:#10bcac;stroke-width:0.86548418;stroke-linecap:butt;stroke-linejoin:miter;stroke-miterlimit:10;stroke-dasharray:none;stroke-opacity:1"
             d="M 0,0 V 7.904 L -1.501,0 H -3.61 L -5.054,7.885 V 0 h -2.299 v 10.944 h 3.572 l 1.254,-6.954 1.255,6.954 H 2.299 V 0 Z"
             inkscape:connector-curvature="0" />
        </g>
      </g>
    </g>
  </g>
</svg>
