<?xml version="1.0" encoding="UTF-8" standalone="no"?>
<!-- Generator: Adobe Illustrator 16.0.0, SVG Export Plug-In . SVG Version: 6.00 Build 0)  -->

<svg
   xmlns:dc="http://purl.org/dc/elements/1.1/"
   xmlns:cc="http://creativecommons.org/ns#"
   xmlns:rdf="http://www.w3.org/1999/02/22-rdf-syntax-ns#"
   xmlns:svg="http://www.w3.org/2000/svg"
   xmlns="http://www.w3.org/2000/svg"
   xmlns:sodipodi="http://sodipodi.sourceforge.net/DTD/sodipodi-0.dtd"
   xmlns:inkscape="http://www.inkscape.org/namespaces/inkscape"
   version="1.1"
   id="Capa_1"
   x="0px"
   y="0px"
   width="367.389px"
   height="367.389px"
   viewBox="0 0 367.389 367.389"
   style="enable-background:new 0 0 367.389 367.389;"
   xml:space="preserve"
   >
     <g
     id="g24"><g
       id="g22"
       transform="translate(0.61954298)"><path
         d="m 75.177,71.774 h 23.298 c 1.152,0 2.077,-0.924 2.077,-2.069 0,-1.148 -0.924,-2.087 -2.077,-2.087 H 75.177 c -1.153,0 -2.077,0.939 -2.077,2.087 0,1.145 0.924,2.069 2.077,2.069 z"
         id="path10"
         inkscape:connector-curvature="0" /><path
         d="M 349.677,269.118 V 245.82 c 0,-1.147 -0.924,-2.072 -2.077,-2.072 -1.143,0 -2.066,0.925 -2.066,2.072 v 23.298 c 0,1.152 0.924,2.087 2.066,2.087 1.153,0 2.077,-0.93 2.077,-2.087 z"
         id="path12"
         inkscape:connector-curvature="0" /><path
         d="m 0,341.021 c 0,11.695 9.503,21.206 21.195,21.206 h 131.258 c 7.79,0 14.576,-4.235 18.235,-10.526 2.196,-3.769 6.162,-7.399 10.532,-7.399 h 164.973 c 11.685,0 21.195,-9.506 21.195,-21.189 V 191.846 c 0,-11.692 -9.501,-21.196 -21.195,-21.196 H 181.804 c -4.362,0 -7.901,1.856 -7.901,4.139 0,2.285 3.54,4.142 7.901,4.142 h 164.389 c 7.109,0 12.908,5.796 12.908,12.916 v 131.26 c 0,7.109 -5.789,12.898 -12.908,12.898 H 181.55 c -4.359,0 -7.899,-1.833 -7.899,-4.098 0,-2.26 3.54,-4.104 7.899,-4.104 h 149.292 c 1.157,0 2.082,-0.924 2.082,-2.066 V 189.206 c 0,-1.143 -0.925,-2.067 -2.082,-2.067 H 181.55 c -4.359,0 -7.899,-3.539 -7.899,-7.901 V 71.127 c 0,-11.7 -9.506,-21.206 -21.198,-21.206 H 21.195 C 9.514,49.921 0,59.427 0,71.127 Z M 181.55,191.277 h 139.334 c 4.357,0 7.896,3.539 7.896,7.901 v 116.585 c 0,4.362 -3.539,7.901 -7.896,7.901 H 181.55 c -4.359,0 -7.899,-3.539 -7.899,-7.901 V 199.178 c 0,-4.362 3.53,-7.901 7.899,-7.901 z M 165.364,71.127 v 269.894 c 0,7.125 -5.784,12.919 -12.911,12.919 H 21.195 c -7.109,0 -12.908,-5.784 -12.908,-12.919 V 71.127 c 0,-7.112 5.792,-12.918 12.908,-12.918 h 131.258 c 7.12,-0.001 12.911,5.798 12.911,12.918 z"
         id="path14"
         inkscape:connector-curvature="0" /><path
         d="m 16.488,86.46 v 236.951 c 0,1.148 0.924,2.072 2.069,2.072 h 136.529 c 1.153,0 2.077,-0.924 2.077,-2.072 V 86.46 c 0,-1.137 -0.924,-2.069 -2.077,-2.069 H 18.558 c -1.146,0 -2.07,0.932 -2.07,2.069 z m 12.048,2.069 h 116.58 c 4.362,0 7.899,3.54 7.899,7.901 v 217.022 c 0,4.357 -3.537,7.896 -7.899,7.896 H 28.536 c -4.362,0 -7.901,-3.539 -7.901,-7.896 V 96.43 c -0.001,-4.361 3.531,-7.901 7.901,-7.901 z"
         id="path16"
         inkscape:connector-curvature="0" /><path
         d="M 98.759,330.22 H 74.893 c -4.898,0 -8.887,3.981 -8.887,8.892 v 1.422 c 0,4.905 3.989,8.887 8.887,8.887 h 23.866 c 4.898,0 8.887,-3.981 8.887,-8.887 v -1.422 c 0,-4.91 -3.989,-8.892 -8.887,-8.892 z m 4.748,10.304 c 0,2.625 -2.125,4.748 -4.748,4.748 H 74.893 c -2.607,0 -4.748,-2.133 -4.748,-4.748 v -1.422 c 0,-2.605 2.141,-4.743 4.748,-4.743 h 23.866 c 2.623,0 4.748,2.138 4.748,4.743 z"
         id="path18"
         inkscape:connector-curvature="0" /><path
         d="m 217.5988,13.929086 c -11.897,-5.002 -24.506,-7.528 -37.47,-7.528 -24.491,0 -47.868,9.051 -65.816,25.524 0,0 -0.221,0.198 -0.513,0.467 -0.277,0.259 0.751,1.831 2.29,3.514 1.549,1.699 3.034,2.836 3.311,2.592 l 0.513,-0.467 c 16.425,-15.059 37.803,-23.344 60.215,-23.344 11.849,0 23.384,2.313 34.271,6.881 36.262,15.213 57.797,52.242 54.009,90.557994 -0.3,3.042 -3.077,4.756 -6.002,3.87 l -7.49,-2.267 c -2.914,-0.892 -4.113,0.568 -2.676,3.255 l 10.425,19.537 c 1.442,2.687 4.783,3.705 7.475,2.268 l 19.53,-10.428 c 2.691,-1.437 2.504,-3.318 -0.422,-4.212 l -8.287,-2.511 c -2.92,-0.878 -4.839,-4.044 -4.494,-7.071 4.921,-42.477994 -18.723,-83.786994 -58.869,-100.637994 z"
         id="path20"
         inkscape:connector-curvature="0" /></g></g></svg>
